<?xml version="1.0" standalone="no"?>
<!DOCTYPE svg PUBLIC "-//W3C//DTD SVG 20010904//EN"
 "http://www.w3.org/TR/2001/REC-SVG-20010904/DTD/svg10.dtd">
<svg version="1.0" xmlns="http://www.w3.org/2000/svg"
 width="594.000000pt" height="594.000000pt" viewBox="0 0 594.000000 594.000000"
 preserveAspectRatio="xMidYMid meet">
<metadata>
Created by potrace 1.14, written by Peter Selinger 2001-2017
</metadata>
<g transform="translate(0.000000,594.000000) scale(0.100000,-0.100000)"
fill="#000000" stroke="none">
<path d="M3161 5921 c-19 -35 -123 -364 -165 -521 -14 -52 -35 -129 -46 -170
-18 -66 -55 -220 -66 -275 -2 -11 -11 -52 -20 -91 -17 -79 -22 -102 -24 -124
-1 -8 -8 26 -16 75 -35 230 -97 310 -397 512 -84 56 -157 106 -162 111 -206
173 -423 278 -635 307 -104 14 -204 40 -356 91 -171 57 -218 65 -228 38 -12
-31 25 -64 206 -186 204 -135 333 -252 368 -331 11 -25 23 -74 25 -109 10
-132 29 -255 50 -323 8 -27 11 -53 7 -57 -4 -4 -25 -10 -47 -14 -74 -11 -310
-83 -395 -119 -411 -175 -677 -474 -820 -920 -27 -84 -62 -221 -74 -290 -3
-16 -8 -39 -10 -50 -2 -11 -7 -47 -11 -80 -4 -32 -8 -66 -10 -75 -26 -138 -27
-928 -1 -1140 3 -19 8 -64 11 -100 3 -36 8 -76 10 -90 2 -14 11 -68 20 -120
69 -434 201 -773 409 -1056 17 -23 40 -54 51 -69 71 -98 199 -227 311 -315
134 -105 397 -244 574 -304 186 -63 294 -81 480 -81 245 0 438 35 597 107 106
48 173 38 500 -71 174 -59 284 -80 396 -77 85 3 188 24 229 46 10 6 23 10 30
10 16 0 225 95 338 154 390 203 627 381 862 647 232 263 378 578 453 977 3 15
8 38 10 52 15 71 32 207 40 310 3 36 7 94 10 130 7 72 6 582 0 645 -2 22 -6
96 -10 165 -3 69 -8 132 -10 140 -2 8 -7 56 -10 105 -3 50 -8 97 -10 105 -2 8
-6 44 -10 80 -3 36 -7 75 -9 87 -3 12 -7 43 -11 70 -12 86 -16 107 -36 208
-12 55 -23 110 -25 123 -9 49 -85 265 -110 315 -42 82 -109 170 -170 223 -31
27 -62 54 -68 60 -95 90 -430 239 -646 288 -146 33 -213 41 -365 40 -198 0
-258 -11 -452 -84 -347 -131 -543 -195 -543 -176 0 2 25 66 56 142 66 163 111
289 119 335 3 18 8 36 11 40 3 5 11 55 18 111 13 99 14 207 1 276 -17 97 -72
206 -132 263 -49 47 -78 57 -92 30z"/>
<path d="M226 4156 c-8 -14 -12 -27 -7 -30 9 -6 37 41 29 49 -3 3 -13 -6 -22
-19z"/>
</g>
</svg>
